<?xml version="1.0" encoding="UTF-8"?>
<svg xmlns="http://www.w3.org/2000/svg" xmlns:xlink="http://www.w3.org/1999/xlink" width="1403.68pt" height="1133.86pt" viewBox="0 0 1403.68 1133.86">
<defs>
<clipPath id="clip-0">
<path clip-rule="nonzero" d="M 0 0.0625 L 1403 0.0625 L 1403 1133.660156 L 0 1133.660156 Z M 0 0.0625 "/>
</clipPath>
</defs>
<g clip-path="url(#clip-0)">
<path fill-rule="nonzero" fill="rgb(72.549438%, 11.372375%, 11.372375%)" fill-opacity="1" d="M 1217.796875 154.976562 L 1217.796875 0.0585938 L 1204.660156 0.0585938 L 1204.660156 456.328125 C 1111.078125 388.933594 1050.09375 279.105469 1050.09375 154.976562 L 1050.09375 0.0585938 L 1036.957031 0.0585938 L 1036.957031 466.246094 C 935.21875 400.039062 867.90625 285.40625 867.90625 154.976562 L 867.90625 0.0585938 L 854.769531 0.0585938 L 854.769531 451.117188 C 787.195312 399.980469 737.65625 326.265625 717.410156 241.195312 C 711.859375 217.871094 709.269531 193.945312 709.269531 169.972656 L 709.269531 0.0585938 L 694.082031 0.0585938 L 694.082031 169.972656 C 694.082031 193.945312 691.496094 217.871094 685.945312 241.195312 C 665.699219 326.265625 616.160156 399.980469 548.585938 451.117188 L 548.585938 0.0585938 L 535.449219 0.0585938 L 535.449219 154.976562 C 535.449219 285.40625 468.136719 400.039062 366.398438 466.246094 L 366.398438 0.0585938 L 353.261719 0.0585938 L 353.261719 154.976562 C 353.261719 279.105469 292.277344 388.933594 198.695312 456.328125 L 198.695312 0.0585938 L 185.558594 0.0585938 L 185.558594 154.976562 C 185.558594 292.003906 111.257812 411.605469 0.792969 475.921875 L 0.792969 657.800781 C 111.257812 722.117188 185.558594 841.71875 185.558594 978.746094 L 185.558594 1133.660156 L 198.695312 1133.660156 L 198.695312 677.394531 C 292.277344 744.789062 353.261719 854.617188 353.261719 978.746094 L 353.261719 1133.660156 L 366.398438 1133.660156 L 366.398438 667.476562 C 468.136719 733.683594 535.449219 848.316406 535.449219 978.746094 L 535.449219 1133.660156 L 548.585938 1133.660156 L 548.585938 682.59375 C 607.351562 727.085938 652.496094 788.628906 676.566406 859.882812 C 688.394531 894.886719 694.082031 931.679688 694.082031 968.621094 L 694.082031 1133.660156 L 709.269531 1133.660156 L 709.269531 968.621094 C 709.269531 931.679688 714.960938 894.886719 726.789062 859.882812 C 750.863281 788.628906 796 727.085938 854.769531 682.59375 L 854.769531 1133.660156 L 867.90625 1133.660156 L 867.90625 978.746094 C 867.90625 848.316406 935.21875 733.683594 1036.957031 667.476562 L 1036.957031 1133.660156 L 1050.09375 1133.660156 L 1050.09375 978.746094 C 1050.09375 854.617188 1111.078125 744.789062 1204.660156 677.394531 L 1204.660156 1133.660156 L 1217.796875 1133.660156 L 1217.796875 978.746094 C 1217.796875 841.71875 1292.097656 722.117188 1402.5625 657.800781 L 1402.5625 475.921875 C 1292.097656 411.605469 1217.796875 292.003906 1217.796875 154.976562 "/>
</g>
<path fill-rule="nonzero" fill="rgb(100%, 100%, 100%)" fill-opacity="1" d="M 712.234375 624.816406 C 712.234375 631.070312 707.167969 636.136719 700.914062 636.136719 C 694.664062 636.136719 689.59375 631.070312 689.59375 624.816406 C 689.59375 618.566406 694.664062 613.5 700.914062 613.5 C 707.167969 613.5 712.234375 618.566406 712.234375 624.816406 "/>
<path fill-rule="nonzero" fill="rgb(100%, 100%, 100%)" fill-opacity="1" d="M 712.234375 566.859375 C 712.234375 573.113281 707.167969 578.179688 700.914062 578.179688 C 694.664062 578.179688 689.59375 573.113281 689.59375 566.859375 C 689.59375 560.609375 694.664062 555.542969 700.914062 555.542969 C 707.167969 555.542969 712.234375 560.609375 712.234375 566.859375 "/>
<path fill-rule="nonzero" fill="rgb(100%, 100%, 100%)" fill-opacity="1" d="M 712.234375 508.902344 C 712.234375 515.15625 707.167969 520.222656 700.914062 520.222656 C 694.664062 520.222656 689.59375 515.15625 689.59375 508.902344 C 689.59375 502.652344 694.664062 497.585938 700.914062 497.585938 C 707.167969 497.585938 712.234375 502.652344 712.234375 508.902344 "/>
<path fill-rule="nonzero" fill="rgb(100%, 100%, 100%)" fill-opacity="1" d="M 52.832031 522.226562 L 144.507812 522.226562 L 144.507812 535.105469 L 96.074219 535.105469 L 135.609375 600.003906 L 135.609375 611.496094 L 64.152344 611.496094 L 64.152344 598.621094 L 119.082031 598.621094 L 85.613281 542.195312 L 80.425781 535.101562 L 52.824219 535.101562 L 52.824219 522.226562 Z M 52.832031 522.226562 "/>
<path fill-rule="nonzero" fill="rgb(100%, 100%, 100%)" fill-opacity="1" d="M 260.246094 576.875 L 292.464844 523.976562 L 308.601562 523.882812 L 275.460938 576.875 Z M 223.714844 596.960938 L 278.703125 596.960938 L 278.703125 609.835938 L 208.527344 609.835938 L 208.527344 596.144531 L 252.492188 523.976562 L 269.980469 523.976562 Z M 223.714844 596.960938 "/>
<path fill-rule="nonzero" fill="rgb(100%, 100%, 100%)" fill-opacity="1" d="M 460.796875 573.765625 C 460.796875 578.019531 457.355469 581.464844 453.097656 581.464844 C 448.84375 581.464844 445.398438 578.019531 445.398438 573.765625 C 445.398438 569.511719 448.847656 566.066406 453.097656 566.066406 C 457.355469 566.066406 460.796875 569.511719 460.796875 573.765625 M 460.796875 522.234375 L 460.796875 533.5625 C 439.402344 558.304688 415.246094 580.628906 388.003906 598.613281 L 449.679688 598.613281 L 449.679688 611.484375 C 436.742188 611.492188 400.546875 611.484375 372.617188 611.484375 L 372.617188 593.269531 C 394.164062 580.152344 413.757812 563.847656 431.667969 546.089844 C 435.25 542.511719 438.804688 538.832031 442.253906 535.105469 L 375.332031 535.105469 L 375.332031 522.234375 Z M 460.796875 522.234375 "/>
<path fill-rule="nonzero" fill="rgb(100%, 100%, 100%)" fill-opacity="1" d="M 624.097656 523.929688 L 592.09375 574.554688 L 575.769531 574.554688 L 606.613281 523.929688 Z M 597.894531 523.929688 L 543.617188 609.789062 L 528.097656 609.789062 L 580.402344 523.929688 Z M 541.136719 574.554688 L 524.8125 574.554688 L 555.65625 523.929688 L 573.140625 523.929688 Z M 541.136719 574.554688 "/>
<path fill-rule="nonzero" fill="rgb(100%, 100%, 100%)" fill-opacity="1" d="M 837.875 535.101562 L 833.882812 542.015625 L 833.933594 542.195312 L 828.007812 552.199219 L 800.46875 598.621094 L 853.570312 598.621094 L 853.570312 611.496094 L 776.945312 611.496094 L 823.480469 535.101562 L 783.347656 535.101562 L 783.347656 522.226562 L 857.09375 522.226562 L 857.09375 535.101562 Z M 837.875 535.101562 "/>
<path fill-rule="nonzero" fill="rgb(100%, 100%, 100%)" fill-opacity="1" d="M 986.480469 576.875 L 1018.699219 523.976562 L 1034.832031 523.882812 L 1001.695312 576.875 Z M 949.945312 596.960938 L 1004.9375 596.960938 L 1004.9375 609.835938 L 934.757812 609.835938 L 934.757812 596.144531 L 978.726562 523.976562 L 996.214844 523.976562 Z M 949.945312 596.960938 "/>
<path fill-rule="nonzero" fill="rgb(100%, 100%, 100%)" fill-opacity="1" d="M 1182.796875 595.121094 L 1182.796875 609.789062 L 1112.5 609.789062 L 1112.5 596.914062 L 1168.203125 596.914062 L 1121.933594 523.929688 L 1139.425781 523.929688 Z M 1182.796875 595.121094 "/>
<path fill-rule="nonzero" fill="rgb(100%, 100%, 100%)" fill-opacity="1" d="M 1264.316406 581.507812 C 1264.316406 585.761719 1260.871094 589.203125 1256.617188 589.203125 C 1252.363281 589.203125 1248.917969 585.761719 1248.917969 581.507812 C 1248.917969 577.253906 1252.367188 573.808594 1256.617188 573.808594 C 1260.871094 573.808594 1264.316406 577.253906 1264.316406 581.507812 M 1350.527344 522.640625 L 1350.527344 537.96875 L 1346.488281 545.710938 L 1339.089844 560.496094 L 1317.671875 603.296875 L 1313.78125 611.082031 L 1298.878906 611.082031 L 1325.488281 557.898438 L 1336.6875 535.515625 L 1249.144531 535.515625 C 1249 535.335938 1248.847656 535.152344 1248.703125 534.964844 L 1248.703125 522.640625 Z M 1350.527344 522.640625 "/>
</svg>
